# xmcd
#
# Track frame offsets: 
#        150
#        16885
#        28589
#        44775
#        58706
#        68867
#        79971
#        90469
#        103960
#        118033
#        130681
#        141122
#
# Disc length: 2035 seconds
#
# Revision: 0
# Processed by: cddbd v1.5.2PL0 Copyright (c) Steve Scherf et al.
# Submitted via: ExactAudioCopy v0.99pb5
#
DISCID=a707f10c
DTITLE=Landon Dodd - Call Of The Wine
DYEAR=2009
DGENRE=Country
TTITLE0=Call Of The Wine
TTITLE1=I Bought The Shoes (That Just Walked Out On Me)
TTITLE2=Good Year For The Roses
TTITLE3=Perfect Stranger
TTITLE4=New Lips
TTITLE5=We're Off And Loving Again
TTITLE6=Face The Music
TTITLE7=I Want To Hear It From You
TTITLE8=Mr. Right And Mrs. Wrong
TTITLE9=I Went To Bed Loving You
TTITLE10=What A Liar I Am
TTITLE11=There's Something About A Lady
EXTD=
EXTT0=
EXTT1=
EXTT2=
EXTT3=
EXTT4=
EXTT5=
EXTT6=
EXTT7=
EXTT8=
EXTT9=
EXTT10=
EXTT11=
PLAYORDER=
